{"glyphs":{":":{"x_min":0,"x_max":312,"ha":312,"o":"m 10 89 q 10 129 39 157 q 68 185 109 185 q 150 185 180 158 q 209 130 209 89 q 209 48 180 20 q 151 -8 109 -8 q 68 -8 39 20 q 10 48 10 89 z m 123 378 q 123 418 152 446 q 181 474 222 474 q 263 474 292 446 q 322 419 322 378 q 322 337 293 309 q 264 281 222 281 q 181 281 152 309 q 123 337 123 378 z"},"$":{"x_min":0,"x_max":675,"ha":675,"o":"m 258 15 q 265 14 286 12 q 306 9 327 9 q 394 9 430 41 q 466 73 466 123 q 466 160 442 188 q 418 216 353 251 z m 515 738 l 543 805 l 564 799 l 538 736 q 617 725 668 686 q 720 648 720 586 q 720 546 692 518 q 663 489 622 489 q 581 489 551 514 q 521 538 521 582 q 521 614 536 634 q 550 655 566 662 q 581 668 590 672 q 600 676 600 684 q 600 689 587 700 q 574 711 530 717 l 436 483 q 466 466 498 448 q 529 431 564 406 q 600 381 630 338 q 659 295 659 241 q 659 119 557 54 q 455 -12 320 -12 q 295 -12 277 -10 q 259 -7 250 -4 l 209 -105 l 189 -98 l 228 -1 q 145 18 89 56 q 33 95 33 160 q 33 202 64 234 q 94 265 137 265 q 183 265 213 238 q 243 211 243 165 q 243 126 219 104 q 195 82 166 78 q 150 78 150 66 q 150 56 177 42 q 204 27 236 18 l 334 261 q 297 282 274 296 q 250 309 238 317 q 189 355 164 396 q 139 437 139 492 q 139 604 242 672 q 346 740 457 740 z m 418 493 l 508 719 l 456 720 q 404 720 364 691 q 325 662 325 612 q 325 576 351 548 q 377 519 418 493 z"},"?":{"x_min":0,"x_max":517,"ha":517,"o":"m 91 89 q 91 129 120 157 q 149 185 190 185 q 231 185 260 158 q 290 130 290 89 q 290 48 261 20 q 232 -8 190 -8 q 149 -8 120 20 q 91 48 91 89 z m 444 280 q 414 255 382 244 q 349 232 312 232 q 244 232 202 272 q 161 313 161 378 q 161 419 184 452 q 206 486 249 515 q 329 560 410 606 q 429 619 440 633 q 452 647 452 666 q 452 694 428 709 q 403 724 366 724 q 320 724 288 708 q 257 693 257 674 q 257 666 285 654 q 313 642 313 614 q 313 590 296 576 q 280 561 255 561 q 232 561 218 578 q 204 595 204 618 q 204 663 250 702 q 296 740 366 740 q 449 740 502 691 q 555 642 555 562 q 555 513 533 476 q 511 438 480 416 q 448 394 424 382 q 400 371 342 348 q 284 325 268 315 q 251 305 251 286 q 251 266 271 256 q 291 247 314 247 q 346 247 376 260 q 405 273 432 298 q 448 303 448 290 q 448 285 444 280 z"},"<":{"x_min":0,"x_max":833,"ha":833,"o":"m 295 332 l 295 327 l 753 142 l 722 68 l 179 292 l 179 366 l 722 590 l 753 516 z"},"'":{"x_min":0,"x_max":205,"ha":205,"o":"m 166 403 l 151 409 q 163 452 172 506 q 181 561 181 595 q 181 639 184 656 q 186 672 194 694 q 203 715 232 728 q 260 741 283 741 q 304 741 320 711 q 336 681 336 660 q 336 626 266 542 q 195 457 166 403 z"},"=":{"x_min":0,"x_max":833,"ha":833,"o":"m 750 469 l 750 391 l 183 391 l 183 469 z m 750 267 l 750 189 l 183 189 l 183 267 z"},"a":{"x_min":0,"x_max":662,"ha":662,"o":"m 671 474 l 498 94 q 495 88 488 68 q 481 48 481 43 q 481 35 484 30 q 488 26 495 26 q 509 26 534 46 q 559 66 588 102 q 616 139 639 184 l 652 178 q 624 126 594 86 q 565 45 521 18 q 477 -10 415 -10 q 365 -10 340 18 q 315 45 315 100 q 276 42 240 16 q 205 -10 149 -10 q 89 -10 50 28 q 12 67 12 129 q 12 247 120 366 q 229 484 361 484 q 392 484 417 469 q 442 454 442 422 l 439 398 l 474 474 z m 429 420 q 429 436 422 444 q 416 451 402 451 q 383 451 358 421 q 334 391 295 316 q 256 241 217 150 q 178 59 178 32 q 178 23 182 18 q 186 13 194 13 q 225 13 253 44 q 281 74 296 96 q 311 117 336 168 q 360 220 394 301 q 429 382 429 420 z"},"L":{"x_min":0,"x_max":848,"ha":848,"o":"m 691 729 l 691 713 l 636 710 q 588 706 573 682 q 558 657 536 604 l 299 20 l 316 20 q 336 20 363 21 q 390 22 446 27 q 502 32 596 106 q 689 181 752 248 q 814 315 851 357 l 873 357 l 730 0 l -58 0 l -58 16 l -3 20 q 34 24 52 44 q 69 63 105 146 q 141 228 172 302 q 202 376 214 408 q 227 440 269 550 q 311 660 311 680 q 311 700 292 706 q 272 713 211 713 l 211 729 z"},"3":{"x_min":0,"x_max":740,"ha":740,"o":"m 287 -12 q 175 -12 97 36 q 19 83 19 160 q 19 217 59 256 q 99 295 156 295 q 216 295 252 264 q 289 233 289 182 q 289 145 274 124 q 259 104 240 88 q 220 72 211 65 q 204 57 204 45 q 204 30 223 18 q 242 5 269 5 q 351 5 402 94 q 454 183 454 277 q 454 330 432 362 q 411 393 361 393 q 336 393 314 387 q 293 379 273 372 q 261 372 261 388 q 261 398 287 402 q 313 407 337 407 q 421 407 477 466 q 533 525 533 613 q 533 656 508 687 q 483 718 428 718 q 382 718 352 704 q 321 689 321 669 q 321 648 368 634 q 416 621 416 562 q 416 519 382 494 q 348 469 297 469 q 248 469 218 496 q 188 523 188 569 q 188 617 228 654 q 268 692 317 710 q 366 727 407 734 q 448 740 495 740 q 612 740 692 700 q 771 659 771 586 q 771 501 698 458 q 625 414 531 414 l 531 406 q 616 406 670 360 q 725 315 725 251 q 725 116 596 52 q 466 -12 287 -12 z"},";":{"x_min":0,"x_max":312,"ha":312,"o":"m -35 -120 q 22 -120 77 -81 q 132 -42 132 -7 q 132 7 124 7 q 114 4 106 2 q 98 0 88 0 q 56 0 32 24 q 8 48 8 78 q 8 121 34 152 q 61 183 109 183 q 154 183 184 152 q 215 120 215 76 q 215 -7 142 -70 q 68 -134 -35 -134 z m 123 378 q 123 418 152 446 q 181 474 222 474 q 263 474 292 446 q 322 419 322 378 q 322 337 293 309 q 264 281 222 281 q 181 281 152 309 q 123 337 123 378 z"},"J":{"x_min":0,"x_max":680,"ha":680,"o":"m 316 244 q 395 428 431 528 q 467 629 472 648 q 478 667 478 678 q 478 698 462 706 q 445 713 369 713 l 369 729 l 853 729 l 853 713 l 804 710 q 756 706 741 682 q 726 657 688 562 q 651 468 626 404 q 602 340 558 239 q 515 138 416 63 q 318 -12 166 -12 q 89 -12 32 26 q -24 64 -24 132 q -24 186 12 224 q 49 263 101 263 q 153 263 186 232 q 220 202 220 155 q 220 119 194 90 q 168 61 144 56 q 121 50 106 46 q 90 43 90 29 q 90 17 102 10 q 115 4 140 4 q 201 4 239 78 q 277 153 316 244 z"},"V":{"x_min":0,"x_max":915,"ha":915,"o":"m 663 541 q 631 495 564 390 q 496 285 424 170 q 351 55 314 -4 l 199 -4 l 199 600 l 197 648 q 194 680 184 692 q 173 705 142 709 l 88 713 l 88 729 l 552 729 l 552 713 l 498 710 q 467 707 456 696 q 446 684 443 650 l 441 602 l 441 238 q 464 273 510 344 q 555 415 598 480 q 641 545 686 606 q 731 667 781 704 q 831 740 906 740 q 967 740 1011 705 q 1055 670 1055 610 q 1055 549 1018 508 q 982 468 923 468 q 869 468 830 498 q 790 528 790 580 q 790 601 794 614 q 799 628 807 640 q 815 653 828 668 q 842 684 842 693 q 842 701 831 701 q 820 701 808 696 q 796 691 776 674 q 755 657 730 628 q 705 600 663 541 z"},"\"":{"x_min":0,"x_max":386,"ha":386,"o":"m 166 402 l 151 408 q 163 452 173 507 q 183 562 183 595 q 183 639 186 656 q 188 672 196 694 q 205 715 233 728 q 261 741 283 741 q 304 741 319 712 q 334 682 334 660 q 334 631 256 527 q 177 423 166 402 z m 347 402 l 332 408 q 344 452 354 507 q 364 562 364 595 q 364 639 366 656 q 369 672 378 694 q 386 715 414 728 q 442 741 464 741 q 485 741 500 712 q 515 682 515 660 q 515 631 436 527 q 358 423 347 402 z"},"7":{"x_min":0,"x_max":615,"ha":615,"o":"m 815 712 q 764 668 702 612 q 640 557 566 484 q 492 411 432 308 q 371 204 358 131 q 344 58 337 16 q 319 -62 274 -99 q 230 -136 169 -136 q 113 -136 80 -104 q 46 -71 46 -20 q 46 49 94 114 q 141 178 222 246 q 303 315 364 360 q 424 404 484 448 q 545 492 580 520 l 579 525 q 564 525 512 524 q 461 522 449 522 l 235 522 q 185 522 165 512 q 145 501 124 466 l 106 436 l 93 439 l 237 797 l 251 797 q 249 791 248 782 q 246 774 246 770 q 246 740 257 734 q 268 727 308 727 q 394 727 521 728 q 648 728 815 729 z"},"S":{"x_min":0,"x_max":710,"ha":710,"o":"m 351 -12 q 287 -12 223 19 q 159 50 96 83 q 76 83 44 52 q 13 22 -4 -12 l -21 -12 l 127 352 l 145 352 q 144 338 143 310 q 142 283 142 271 q 142 223 149 188 q 156 153 176 108 q 197 62 246 34 q 296 7 361 7 q 421 7 458 42 q 495 77 495 122 q 495 152 475 178 q 455 204 394 238 q 334 271 250 318 q 152 387 152 489 q 152 590 245 665 q 338 740 468 740 q 536 740 590 720 q 639 698 689 676 q 713 676 729 692 q 745 708 764 740 l 783 740 l 660 436 l 642 436 q 644 449 645 467 q 646 485 646 510 q 646 550 642 578 q 639 607 625 640 q 611 674 575 698 q 539 721 473 721 q 422 721 378 692 q 335 664 335 616 q 335 585 354 558 q 374 531 400 516 q 426 501 489 466 q 552 432 591 408 q 630 383 658 338 q 687 293 687 239 q 687 130 592 59 q 497 -12 351 -12 z"},"}":{"x_min":0,"x_max":401,"ha":401,"o":"m 409 587 q 409 523 336 432 q 263 341 263 300 q 263 273 286 258 q 309 243 367 243 l 367 225 q 253 225 218 182 q 184 140 184 77 l 184 55 q 184 -15 170 -52 q 155 -90 122 -125 q 90 -160 36 -180 q -19 -199 -96 -199 l -145 -197 l -145 -179 q -70 -179 -28 -156 q 14 -133 44 -51 q 63 15 83 81 q 116 164 170 196 q 224 227 291 233 l 291 239 q 253 243 226 268 q 198 293 198 339 q 198 374 250 476 q 301 577 301 627 q 301 671 277 691 q 253 711 197 711 l 197 729 q 285 729 347 701 q 409 673 409 587 z"},"Z":{"x_min":0,"x_max":834,"ha":834,"o":"m 278 20 l 387 24 q 461 24 604 138 q 747 253 828 352 l 848 352 l 706 0 l -28 0 l -28 16 l 639 705 l 639 710 l 553 706 q 474 706 336 600 q 198 494 114 395 l 94 395 l 228 729 l 945 729 l 945 711 l 278 25 z"},"x":{"x_min":0,"x_max":668,"ha":668,"o":"m 710 400 q 710 367 686 343 q 662 319 630 319 q 604 319 586 336 q 568 353 568 379 q 568 401 578 416 q 588 430 600 435 q 611 440 622 444 q 632 449 632 457 q 632 465 628 468 q 624 472 615 472 q 583 472 546 430 q 509 389 478 331 q 447 273 415 191 q 383 109 383 69 q 383 46 394 34 q 405 22 426 22 q 458 22 487 36 q 516 49 544 75 q 572 101 596 135 q 620 169 643 209 l 658 203 q 605 103 536 46 q 466 -10 374 -10 q 309 -10 266 24 q 222 59 222 113 q 190 66 144 28 q 98 -10 54 -10 q 10 -10 -16 13 q -42 36 -42 78 q -42 111 -18 136 q 5 162 38 162 q 68 162 86 144 q 105 127 105 97 q 105 73 92 58 q 78 44 64 39 q 51 34 40 30 q 29 25 29 17 q 29 10 34 6 q 39 2 48 2 q 98 2 128 47 q 159 92 188 145 q 218 198 250 280 q 283 363 283 399 q 283 424 272 438 q 261 452 238 452 q 206 452 176 434 q 145 417 120 392 q 96 366 78 342 q 61 318 42 286 l 28 293 q 78 385 143 434 q 208 484 296 484 q 362 484 401 456 q 440 427 452 369 q 488 417 530 450 q 572 484 619 484 q 663 484 686 462 q 710 439 710 400 z"},")":{"x_min":0,"x_max":448,"ha":448,"o":"m 437 415 q 437 299 379 168 q 321 36 200 -82 q 80 -201 -121 -201 l -154 -200 l -154 -184 q -84 -184 -24 -144 q 35 -103 97 -4 q 159 94 224 274 q 289 453 289 559 q 289 634 270 667 q 250 700 200 716 l 200 732 q 315 702 376 619 q 437 536 437 415 z"},"&":{"x_min":0,"x_max":842,"ha":842,"o":"m 249 384 q 233 416 226 439 q 219 462 219 501 q 219 592 296 666 q 373 740 473 740 q 543 740 582 713 q 621 686 621 640 q 621 577 574 547 q 527 517 473 493 q 495 468 522 436 q 548 404 573 367 q 593 417 640 454 q 687 490 751 490 q 805 490 842 460 q 878 429 878 380 q 878 333 847 301 q 816 269 769 269 q 723 269 691 292 q 659 316 659 360 q 659 392 679 419 q 689 430 696 438 q 703 445 703 453 q 703 460 696 460 q 673 460 635 426 q 597 391 587 348 q 636 264 652 227 q 668 190 668 126 q 668 4 582 -82 q 496 -168 375 -168 q 353 -168 328 -162 q 302 -157 279 -144 l 284 -132 q 302 -142 328 -146 q 354 -151 375 -151 q 428 -151 462 -120 q 497 -89 497 -32 q 497 11 482 49 q 466 87 434 132 q 406 76 346 32 q 285 -12 207 -12 q 139 -12 88 34 q 36 81 36 152 q 36 233 79 280 q 122 327 249 384 z m 465 503 q 503 523 526 552 q 548 581 548 627 q 548 670 530 697 q 513 724 466 724 q 436 724 407 704 q 378 685 378 646 q 378 612 406 576 q 433 539 465 503 z m 426 143 q 356 233 314 288 q 272 342 256 371 q 233 359 219 340 q 205 322 205 297 q 205 233 258 172 q 312 112 362 112 q 387 112 400 119 q 414 126 426 143 z"},"_":{"x_min":0,"x_max":500,"ha":500,"o":"m 500 -85 l 500 -163 l 0 -163 l 0 -85 z"},"v":{"x_min":0,"x_max":530,"ha":530,"o":"m 203 -10 q 136 -10 88 22 q 40 54 40 116 q 40 143 50 168 q 59 193 80 238 q 102 282 140 352 q 177 421 177 436 q 177 445 173 449 q 169 453 161 453 q 149 453 131 440 q 113 427 88 397 q 62 367 30 308 l 16 314 q 61 391 104 438 q 148 484 220 484 q 277 484 302 452 q 326 421 326 373 q 326 338 318 316 q 310 294 287 246 q 259 196 234 144 q 208 91 208 63 q 208 41 217 30 q 226 19 249 19 q 317 19 395 99 q 473 179 473 240 q 473 274 420 313 q 366 352 366 403 q 366 438 390 461 q 414 484 446 484 q 492 484 514 456 q 535 428 535 380 q 535 251 437 120 q 339 -10 203 -10 z"},"O":{"x_min":0,"x_max":855,"ha":855,"o":"m 885 424 q 885 252 732 120 q 579 -12 391 -12 q 244 -12 160 78 q 75 167 75 299 q 75 479 230 610 q 384 740 585 740 q 717 740 801 650 q 885 560 885 424 z m 677 634 q 677 676 662 698 q 646 720 606 720 q 570 720 546 703 q 523 686 494 644 q 464 602 426 520 q 387 439 358 366 q 329 293 306 216 q 284 140 284 94 q 284 52 300 30 q 315 8 355 8 q 391 8 414 25 q 438 42 467 84 q 496 125 536 209 q 575 293 608 380 q 642 467 660 534 q 677 600 677 634 z"},"(":{"x_min":0,"x_max":448,"ha":448,"o":"m 281 -187 l 281 -203 q 166 -173 105 -90 q 44 -7 44 114 q 44 230 102 362 q 160 493 280 612 q 401 730 602 730 l 635 729 l 635 713 q 565 713 506 672 q 446 632 384 534 q 322 435 257 256 q 192 76 192 -30 q 192 -105 212 -138 q 231 -171 281 -187 z"},"C":{"x_min":0,"x_max":749,"ha":749,"o":"m 391 -12 q 255 -12 165 77 q 75 166 75 299 q 75 473 218 606 q 360 740 566 740 q 638 740 688 720 q 738 699 790 678 q 814 678 838 696 q 861 715 874 740 l 892 740 l 750 386 l 731 386 q 731 403 732 460 q 734 518 734 525 q 734 628 718 668 q 703 709 643 709 q 604 709 564 682 q 524 654 486 604 q 449 554 418 497 q 388 440 368 388 q 349 336 336 280 q 324 225 324 182 q 324 104 350 63 q 375 22 441 22 q 489 22 524 39 q 560 56 590 83 q 621 110 640 140 q 659 169 676 204 l 694 196 q 652 99 573 44 q 494 -12 391 -12 z"},"W":{"x_min":0,"x_max":1346,"ha":1346,"o":"m 626 486 l 306 -4 l 199 -4 l 199 600 l 197 648 q 194 680 184 692 q 173 705 142 709 l 88 713 l 88 729 l 516 729 l 516 713 l 495 711 q 465 708 456 696 q 446 685 443 650 l 441 602 l 441 246 l 626 526 l 626 600 l 624 648 q 621 677 615 692 q 609 708 572 712 l 552 713 l 552 729 l 979 729 l 979 713 l 925 710 q 894 707 884 696 q 873 684 870 650 l 868 602 l 868 243 q 890 278 910 308 q 930 339 999 442 q 1068 545 1114 606 q 1160 667 1210 704 q 1260 740 1336 740 q 1400 740 1442 702 q 1485 665 1485 605 q 1485 546 1446 507 q 1407 468 1348 468 q 1294 468 1256 500 q 1218 532 1218 584 q 1218 603 1222 614 q 1227 626 1235 640 q 1243 654 1257 669 q 1271 684 1271 694 q 1271 703 1260 703 q 1251 703 1238 696 q 1224 690 1202 672 q 1179 654 1153 622 q 1127 589 1096 545 q 1064 501 987 382 q 910 262 845 158 q 780 55 743 -4 l 626 -4 z"},"A":{"x_min":0,"x_max":974,"ha":974,"o":"m 641 358 l 778 699 q 726 688 674 651 q 622 614 586 569 q 549 524 517 473 q 485 422 450 358 z m 437 335 q 432 325 403 269 q 374 213 330 139 q 287 65 239 26 q 191 -12 115 -12 q 53 -12 10 24 q -32 61 -32 124 q -32 181 8 220 q 47 260 106 260 q 160 260 198 228 q 235 195 235 139 q 235 115 227 95 q 219 75 208 66 q 198 56 178 43 q 157 30 157 20 q 164 14 168 14 q 189 14 222 37 q 254 60 287 110 q 320 159 358 230 q 395 302 454 406 q 514 509 550 562 q 585 614 675 674 q 765 734 898 734 q 951 734 981 732 q 1011 730 1034 727 l 792 125 q 767 62 767 45 q 767 21 796 18 q 825 16 873 16 l 873 0 l 389 0 l 389 16 q 401 16 418 18 q 434 19 458 22 q 483 24 500 44 q 518 63 546 127 l 632 335 z"},"f":{"x_min":0,"x_max":369,"ha":369,"o":"m 149 442 l 44 442 l 57 474 l 164 474 q 188 524 238 586 q 288 647 359 694 q 430 740 510 740 q 568 740 604 714 q 641 689 641 643 q 641 605 614 580 q 586 554 546 554 q 516 554 494 572 q 473 591 473 620 q 473 655 495 681 q 517 707 517 714 q 517 723 494 723 q 440 723 404 648 q 368 573 347 474 l 476 474 l 463 442 l 340 442 q 332 401 317 336 q 302 271 276 194 q 251 117 216 50 q 181 -17 133 -78 q 85 -140 14 -186 q -57 -233 -139 -233 q -195 -233 -234 -202 q -272 -170 -272 -120 q -272 -85 -244 -58 q -216 -31 -177 -31 q -141 -31 -114 -52 q -87 -74 -87 -108 q -87 -149 -112 -176 q -137 -203 -137 -207 q -137 -216 -123 -216 q -73 -216 -44 -174 q -14 -132 13 -23 q 40 86 66 191 q 93 296 112 347 q 131 398 149 442 z"},"Q":{"x_min":0,"x_max":867,"ha":867,"o":"m 284 94 q 296 117 320 129 q 345 141 375 141 q 404 141 428 130 q 452 118 477 97 q 505 140 539 214 q 573 289 608 378 q 642 466 660 532 q 677 599 677 633 q 677 675 662 698 q 646 720 606 720 q 547 720 506 660 q 464 601 426 520 q 387 438 358 366 q 330 294 307 216 q 284 139 284 94 z m 388 8 q 376 69 364 86 q 351 104 331 104 q 313 104 302 96 q 291 88 285 73 q 285 45 303 26 q 321 7 355 7 z m 703 -10 q 772 -10 806 16 q 841 42 854 102 l 868 102 q 868 57 842 -14 q 815 -85 754 -140 q 694 -196 598 -196 q 501 -196 452 -137 q 403 -78 392 -12 q 244 -12 160 77 q 75 166 75 299 q 75 479 230 610 q 384 740 585 740 q 717 740 801 650 q 885 560 885 424 q 885 295 795 183 q 705 71 568 23 q 625 -10 703 -10 z"},"w":{"x_min":0,"x_max":849,"ha":849,"o":"m 154 -10 q 107 -10 74 19 q 40 48 40 107 q 40 134 53 170 q 66 205 82 237 q 97 269 137 346 q 177 424 177 436 q 177 445 173 449 q 169 453 161 453 q 149 453 127 434 q 105 416 90 399 q 75 382 60 358 q 45 333 26 299 l 13 305 q 58 385 102 434 q 147 484 220 484 q 273 484 300 452 q 326 420 326 373 q 326 338 319 318 q 312 298 287 246 l 211 93 q 204 79 199 65 q 194 51 194 39 q 194 29 199 24 q 204 19 213 19 q 237 19 272 64 q 307 108 339 173 l 480 474 l 675 474 l 568 246 q 535 175 517 130 q 499 86 499 59 q 499 36 512 28 q 524 20 547 20 q 615 20 701 102 q 787 184 787 247 q 787 279 737 313 q 687 347 687 401 q 687 438 712 461 q 737 484 769 484 q 812 484 834 458 q 855 431 855 385 q 855 260 744 125 q 632 -10 497 -10 q 427 -10 380 24 q 333 58 333 129 q 295 60 256 25 q 218 -10 154 -10 z"},"-":{"x_min":0,"x_max":310,"ha":310,"o":"m 54 302 l 317 302 l 259 157 l -4 157 z"},"E":{"x_min":0,"x_max":890,"ha":890,"o":"m 448 387 q 461 387 473 388 q 485 388 524 394 q 562 400 618 442 q 673 484 705 547 l 725 547 l 578 182 l 558 182 q 562 198 566 220 q 569 243 569 266 q 569 316 550 342 q 531 367 487 367 l 440 368 l 299 20 l 335 20 q 385 20 458 26 q 530 33 614 94 q 697 154 752 210 q 807 265 840 299 l 860 299 l 740 0 l -58 0 l -58 16 l -3 20 q 34 24 52 44 q 69 63 101 137 q 133 211 158 272 q 183 333 226 444 q 270 556 290 608 q 310 659 310 678 q 310 699 293 706 q 276 713 210 713 l 210 729 l 999 729 l 874 419 l 855 419 l 851 489 q 842 571 812 634 q 783 696 739 701 q 695 706 658 708 q 620 709 590 709 l 577 709 z"},"s":{"x_min":0,"x_max":450,"ha":450,"o":"m 310 484 q 373 484 418 452 q 462 421 462 374 q 462 339 440 314 q 419 290 386 290 q 357 290 332 313 q 307 336 307 368 q 307 386 316 400 q 326 415 338 421 q 349 427 366 430 q 384 434 384 444 q 384 453 368 461 q 351 469 322 469 q 282 469 256 450 q 230 430 230 399 q 230 375 239 361 q 248 347 271 326 l 351 256 q 378 231 391 205 q 404 179 404 145 q 404 71 335 30 q 266 -11 182 -11 q 107 -11 46 28 q -14 66 -14 128 q -14 161 8 184 q 31 208 66 208 q 95 208 120 184 q 145 160 145 128 q 145 105 132 88 q 119 71 103 68 q 87 64 76 62 q 66 59 66 50 q 66 36 94 20 q 121 5 159 5 q 193 5 218 24 q 243 43 243 73 q 243 99 234 113 q 225 127 206 144 q 188 160 160 184 q 133 208 118 226 q 104 243 96 260 q 88 278 88 306 q 88 373 148 428 q 209 484 310 484 z"},">":{"x_min":0,"x_max":833,"ha":833,"o":"m 754 292 l 211 66 l 180 140 l 638 327 l 638 332 l 180 518 l 211 592 l 754 366 z"},"l":{"x_min":0,"x_max":349,"ha":349,"o":"m 205 619 q 217 649 222 663 q 226 677 226 688 q 226 704 210 708 q 193 713 149 713 l 149 729 l 444 729 q 410 646 361 526 q 312 405 243 236 q 174 66 170 56 q 167 46 167 35 q 167 26 171 22 q 175 18 181 18 q 208 18 236 51 q 263 84 282 113 q 302 142 318 168 l 332 161 q 278 72 238 31 q 199 -10 137 -10 q 83 -10 48 26 q 13 62 13 108 q 13 131 18 150 q 23 169 33 193 z"},"8":{"x_min":0,"x_max":693,"ha":693,"o":"m 159 481 q 159 598 257 669 q 355 740 491 740 q 603 740 670 694 q 736 647 736 574 q 736 520 697 478 q 658 436 590 421 q 635 388 661 344 q 687 300 687 255 q 687 132 586 60 q 485 -12 336 -12 q 216 -12 132 38 q 48 89 48 179 q 48 243 100 290 q 153 336 221 347 q 195 373 177 410 q 159 446 159 481 z m 578 427 q 627 453 654 494 q 682 535 682 585 q 682 643 638 682 q 593 720 523 720 q 460 720 420 684 q 380 648 380 599 q 380 562 403 534 q 426 507 448 494 q 471 482 517 459 q 563 436 578 427 z m 231 340 q 185 322 152 278 q 120 234 120 173 q 120 105 176 56 q 231 7 321 7 q 387 7 436 41 q 485 75 485 136 q 485 174 460 202 q 436 230 382 257 q 329 284 294 302 q 258 321 231 340 z"},"\\":{"x_min":0,"x_max":361,"ha":361,"o":"m 381 -102 l 337 -111 l 88 755 l 133 766 z"},"e":{"x_min":0,"x_max":507,"ha":507,"o":"m 222 233 q 292 241 349 312 q 406 382 406 436 q 406 451 402 459 q 398 467 384 467 q 362 467 340 443 q 318 419 293 376 q 268 333 250 298 q 233 262 222 233 z m 219 222 q 213 203 208 172 q 203 142 203 122 q 203 66 218 43 q 234 20 264 20 q 287 20 305 26 q 323 31 347 45 q 371 59 398 86 q 424 113 440 139 l 454 129 q 412 70 355 30 q 298 -10 217 -10 q 143 -10 78 34 q 14 79 14 165 q 14 285 122 384 q 231 484 378 484 q 447 484 491 452 q 535 421 535 380 q 535 301 443 262 q 351 222 219 222 z"},"b":{"x_min":0,"x_max":591,"ha":591,"o":"m 410 419 q 410 438 404 447 q 398 456 385 456 q 374 456 360 448 q 347 439 328 416 q 309 394 283 338 q 257 283 216 180 q 175 76 175 38 q 175 6 205 6 q 228 6 250 36 q 273 67 308 134 q 342 201 376 292 q 410 383 410 419 z m 442 484 q 495 484 535 444 q 575 404 575 327 q 575 205 482 98 q 390 -10 232 -10 q 153 -10 92 38 q 31 87 31 166 q 31 193 41 221 q 56 256 68 286 q 79 315 107 382 q 135 448 158 501 q 180 554 203 612 q 226 671 226 688 q 226 708 202 710 q 177 713 149 713 l 149 729 l 444 729 l 315 420 q 342 451 366 468 q 390 484 442 484 z"},"%":{"x_min":0,"x_max":963,"ha":963,"o":"m 814 736 l 275 -36 l 255 -23 l 756 695 q 719 674 694 666 q 668 658 624 658 q 595 658 562 666 q 528 673 499 686 q 523 657 532 627 q 541 597 541 567 q 541 459 461 383 q 381 307 259 307 q 223 307 192 321 q 161 335 137 360 q 113 384 100 416 q 88 448 88 485 q 88 583 168 662 q 247 740 372 740 q 398 740 416 736 q 434 731 476 714 q 518 698 560 688 q 603 678 630 678 q 683 678 713 688 q 743 699 774 723 l 791 748 q 796 754 802 754 q 809 754 814 748 q 818 743 814 736 z m 983 237 q 983 143 904 66 q 824 -12 701 -12 q 665 -12 632 2 q 600 17 576 42 q 552 66 541 98 q 530 129 530 169 q 530 266 610 344 q 691 421 812 421 q 850 421 880 407 q 910 393 936 366 q 962 339 972 303 q 983 267 983 237 z m 415 684 q 415 704 408 712 q 402 721 385 721 q 365 721 348 697 q 332 673 307 621 q 282 569 248 480 q 214 392 214 362 q 214 343 220 334 q 227 325 245 325 q 268 325 288 358 q 307 391 330 440 q 354 489 384 570 q 415 652 415 684 z m 856 365 q 856 384 848 394 q 841 403 826 403 q 803 403 784 371 q 766 339 744 294 q 723 250 689 162 q 655 73 655 43 q 655 24 662 15 q 668 6 686 6 q 709 6 728 39 q 748 72 772 120 q 795 169 826 252 q 856 335 856 365 z"},"m":{"x_min":0,"x_max":965,"ha":965,"o":"m 958 157 q 906 75 864 32 q 821 -10 745 -10 q 693 -10 666 23 q 640 56 640 101 q 640 134 648 158 q 656 182 670 210 q 683 239 726 324 q 769 408 769 433 q 769 444 764 449 q 760 454 750 454 q 738 454 721 440 q 704 426 679 392 q 654 359 631 312 q 608 264 570 182 q 532 100 514 61 q 496 22 486 0 l 291 0 q 296 11 336 102 q 377 192 416 280 q 456 367 461 378 q 466 389 472 405 q 477 421 477 433 q 477 444 472 450 q 468 455 459 455 q 446 455 429 441 q 412 427 394 404 q 377 381 360 353 q 343 325 332 301 l 185 0 l -10 0 l 163 380 q 165 385 172 404 q 180 422 180 436 q 180 446 176 450 q 172 455 164 455 q 154 455 136 442 q 117 429 98 408 q 80 387 62 360 q 44 333 23 295 l 11 301 q 64 407 112 446 q 161 484 213 484 q 260 484 292 451 q 324 418 324 371 q 324 349 322 334 q 320 319 316 305 l 319 304 q 375 414 418 449 q 460 484 511 484 q 563 484 596 456 q 630 427 630 380 q 630 358 625 340 q 617 319 614 310 q 665 404 702 444 q 738 484 812 484 q 861 484 893 455 q 925 426 925 365 q 925 331 914 305 q 904 279 882 232 q 859 185 824 118 q 788 51 788 36 q 788 27 792 22 q 796 17 803 17 q 832 17 864 52 q 896 88 913 113 q 930 138 946 164 z"},"#":{"x_min":0,"x_max":739,"ha":739,"o":"m 469 724 l 493 718 l 416 527 l 567 527 l 646 724 l 670 718 l 593 527 l 748 527 l 700 408 l 545 408 l 502 301 l 657 301 l 609 183 l 455 183 l 375 -14 l 351 -8 l 429 183 l 278 183 l 198 -14 l 174 -8 l 252 183 l 96 183 l 143 301 l 299 301 l 341 408 l 186 408 l 234 527 l 390 527 z m 365 408 l 321 301 l 478 301 l 522 408 z"},",":{"x_min":0,"x_max":262,"ha":262,"o":"m -39 -120 q 19 -120 74 -82 q 128 -43 128 -7 q 128 7 121 7 q 110 4 102 2 q 94 0 84 0 q 52 0 28 24 q 4 48 4 78 q 4 121 30 152 q 57 183 105 183 q 150 183 180 152 q 211 120 211 76 q 211 -7 138 -70 q 64 -134 -39 -134 z"},"n":{"x_min":0,"x_max":672,"ha":672,"o":"m 517 484 q 564 484 598 454 q 631 425 631 366 q 631 339 620 308 q 609 278 593 243 q 577 208 536 129 q 495 50 495 36 q 495 28 499 24 q 503 20 511 20 q 521 20 538 32 q 555 44 584 77 q 614 110 647 176 l 660 169 q 614 87 572 38 q 529 -10 452 -10 q 399 -10 372 22 q 345 54 345 101 q 345 133 352 153 q 359 173 394 245 q 430 317 453 363 q 476 409 476 435 q 476 445 472 450 q 468 454 459 454 q 447 454 428 439 q 410 424 385 391 q 360 358 333 301 l 188 0 l -7 0 l 163 380 q 169 395 177 414 q 185 432 185 440 q 185 447 182 450 q 179 453 173 453 q 159 453 141 440 q 123 428 106 408 q 88 388 68 358 q 47 327 27 294 l 14 300 q 62 384 108 434 q 155 484 223 484 q 271 484 298 454 q 326 425 326 372 q 326 348 322 328 q 317 309 314 297 q 359 387 400 436 q 442 484 517 484 z"},"h":{"x_min":0,"x_max":633,"ha":633,"o":"m 612 150 q 566 71 527 30 q 488 -10 413 -10 q 360 -10 332 22 q 305 54 305 104 q 305 143 321 182 q 336 212 360 258 q 384 305 412 358 q 440 411 440 438 q 440 449 436 454 q 431 459 422 459 q 404 459 387 448 q 370 437 340 402 q 310 366 283 301 l 160 0 l -34 0 q -7 66 34 166 q 75 266 128 398 q 182 531 204 588 q 227 645 232 661 q 238 677 238 688 q 238 711 205 711 l 161 713 l 161 729 l 456 729 l 317 395 q 356 440 382 462 q 409 484 466 484 q 515 484 554 454 q 592 424 592 364 q 592 330 584 310 q 577 290 551 235 q 525 180 490 115 q 456 50 456 35 q 456 28 460 24 q 465 20 473 20 q 500 20 530 56 q 559 91 574 114 q 589 137 599 156 z"},"z":{"x_min":0,"x_max":538,"ha":538,"o":"m 398 283 l 397 288 q 392 286 374 284 q 356 282 350 282 q 309 282 250 305 q 191 328 155 328 q 109 328 90 306 q 72 285 64 245 l 53 245 q 53 345 106 414 q 158 484 258 484 q 321 484 396 429 q 471 374 506 374 q 522 374 536 384 q 549 394 549 410 q 549 415 548 417 q 547 419 544 420 q 541 420 531 417 q 521 414 511 414 q 499 414 488 424 q 478 435 478 449 q 478 465 490 474 q 503 484 517 484 q 541 484 552 469 q 563 454 563 429 q 563 390 529 354 q 495 317 445 298 q 423 285 384 270 q 345 256 316 249 l 219 227 q 197 222 170 216 q 143 211 119 201 l 121 196 q 130 200 148 203 q 167 206 180 206 q 208 206 278 184 q 348 161 380 161 q 435 161 466 182 q 496 203 508 256 l 519 256 q 519 147 460 68 q 400 -10 294 -10 q 245 -10 160 54 q 74 117 48 117 q 22 117 5 104 q -12 90 -12 62 q -12 49 -6 38 q 0 28 10 28 q 30 69 54 69 q 74 69 82 58 q 90 46 90 33 q 90 12 75 1 q 60 -10 41 -10 q 14 -10 -4 10 q -23 29 -23 64 q -23 103 6 138 q 36 174 80 190 q 99 202 146 220 q 193 238 227 247 q 261 256 293 261 q 325 266 348 270 q 372 275 398 283 z"},"B":{"x_min":0,"x_max":936,"ha":936,"o":"m 379 -1 l -52 0 l -52 16 l 3 20 q 41 24 58 44 q 75 63 118 170 q 162 276 196 364 q 230 451 262 539 q 294 627 300 648 q 306 669 306 679 q 306 701 284 707 q 261 713 195 713 l 195 729 l 592 730 q 692 730 728 726 q 765 723 812 711 q 858 699 894 660 q 931 620 931 554 q 931 479 867 432 q 803 386 703 386 l 661 387 l 661 378 q 757 378 824 332 q 890 287 890 200 q 890 136 856 90 q 821 45 772 27 q 723 9 650 4 q 578 -1 479 -1 z m 443 372 l 305 17 q 342 17 380 18 q 418 18 470 24 q 521 30 564 104 q 608 179 608 261 q 608 310 596 338 q 583 366 538 370 l 482 373 z m 450 390 q 544 390 582 404 q 620 417 656 488 q 692 559 692 635 q 692 667 678 688 q 665 710 634 710 l 577 712 z"},"K":{"x_min":0,"x_max":897,"ha":897,"o":"m 421 322 l 343 125 q 318 63 318 44 q 318 27 337 22 q 356 16 417 16 l 417 0 l -58 0 l -58 16 l -3 20 q 34 24 52 44 q 69 63 99 132 q 129 200 170 300 q 210 400 233 459 q 256 518 284 588 q 311 659 311 679 q 311 705 289 708 q 267 710 244 711 q 221 712 211 713 l 211 729 l 688 729 l 688 713 l 636 710 q 588 706 573 682 q 558 657 536 604 l 434 353 l 437 352 q 477 381 538 426 q 598 470 679 530 q 760 590 796 618 q 833 646 846 662 q 858 679 858 691 q 858 704 844 708 q 830 713 787 713 l 787 729 l 1049 729 l 1049 713 q 1038 713 1014 712 q 991 712 962 702 q 934 691 910 676 q 887 661 834 622 l 690 514 l 776 121 q 789 68 800 46 q 810 24 832 20 q 854 17 868 16 q 881 16 892 16 l 892 0 l 467 0 l 467 16 l 513 18 q 531 18 536 27 q 541 36 541 53 q 541 72 520 169 q 500 266 479 361 z"},"R":{"x_min":0,"x_max":929,"ha":929,"o":"m 445 380 l 533 383 q 600 383 648 464 q 697 545 697 632 q 697 709 634 709 l 581 711 z m 437 362 l 343 125 q 318 63 318 44 q 318 28 338 22 q 357 16 417 16 l 417 0 l -58 0 l -58 16 l -3 20 q 34 24 52 44 q 69 63 99 132 q 129 200 170 300 q 210 400 233 459 q 256 518 284 589 q 311 660 311 678 q 311 700 292 706 q 273 713 211 713 l 211 729 l 662 730 q 793 730 866 690 q 939 650 939 566 q 939 473 856 422 q 774 370 666 370 l 641 371 l 641 365 q 689 351 714 342 q 738 332 764 302 q 790 272 798 248 q 807 224 807 187 q 807 146 796 102 q 784 58 784 52 q 784 43 786 36 q 789 29 803 29 q 818 29 838 46 q 857 62 870 80 q 884 99 894 116 q 903 133 915 158 l 928 153 q 892 68 840 28 q 789 -12 705 -12 q 620 -12 573 28 q 526 68 526 146 q 526 175 545 240 q 564 306 564 313 q 564 335 554 348 q 543 362 516 362 l 485 363 z"},"T":{"x_min":0,"x_max":810,"ha":810,"o":"m 476 125 q 451 62 451 44 q 451 16 550 16 l 550 0 l 75 0 l 75 16 l 130 20 q 167 24 184 44 q 202 63 234 137 q 266 211 320 345 q 373 479 408 567 q 443 655 465 711 l 437 708 q 380 703 278 608 q 177 514 91 408 l 74 408 l 203 729 l 993 729 l 864 408 l 847 408 q 847 554 816 631 q 786 708 743 708 l 712 710 z"},"P":{"x_min":0,"x_max":854,"ha":854,"o":"m 422 323 q 435 323 458 324 q 482 324 530 329 q 579 334 636 430 q 694 527 694 612 q 694 655 678 682 q 662 709 631 709 l 581 711 z m 414 305 l 343 125 q 319 63 319 45 q 319 27 339 22 q 359 16 427 16 l 427 0 l -58 0 l -58 16 l -3 20 q 34 24 52 44 q 69 63 99 132 q 129 200 170 300 q 210 400 233 459 q 256 518 278 574 q 299 629 305 648 q 311 668 311 680 q 311 701 292 707 q 274 713 211 713 l 211 729 l 640 730 q 715 730 774 715 q 833 700 867 674 q 901 649 918 614 q 934 579 934 540 q 934 429 838 365 q 743 301 607 301 q 546 301 498 302 q 450 303 414 305 z"},"|":{"x_min":0,"x_max":445,"ha":445,"o":"m 231 754 l 308 754 l 308 -246 l 231 -246 z"},"t":{"x_min":0,"x_max":361,"ha":361,"o":"m 458 474 l 445 442 l 333 442 l 182 77 q 175 60 173 52 q 171 44 171 36 q 171 27 175 22 q 179 18 186 18 q 199 18 216 30 q 234 41 253 60 q 272 80 292 109 q 313 138 326 163 l 339 156 q 290 74 244 32 q 199 -10 132 -10 q 74 -10 45 24 q 16 59 16 107 q 16 129 21 146 q 26 162 38 193 l 142 442 l 56 442 l 69 474 l 155 474 l 235 667 l 428 667 l 347 474 z"},"M":{"x_min":0,"x_max":1262,"ha":1262,"o":"m 353 235 q 322 154 302 114 q 281 75 242 32 q 204 -12 115 -12 q 54 -12 11 25 q -32 62 -32 123 q -32 182 7 221 q 46 260 105 260 q 157 260 196 228 q 235 196 235 145 q 235 124 232 109 q 228 94 222 82 q 215 69 204 58 q 194 48 194 41 q 194 33 204 33 q 211 33 224 44 q 238 54 256 79 q 273 104 290 143 q 308 182 350 290 q 392 398 430 514 q 469 629 473 646 q 477 662 477 671 q 477 697 454 705 q 432 713 363 713 l 363 729 l 739 729 l 739 278 l 1049 729 l 1422 729 l 1422 713 l 1370 710 q 1322 706 1307 682 q 1292 657 1240 532 q 1189 408 1154 320 q 1118 233 1092 164 q 1066 94 1059 73 q 1052 52 1052 46 q 1052 26 1074 21 q 1096 16 1151 16 l 1151 0 l 676 0 l 676 16 l 731 20 q 768 24 786 44 q 803 63 832 129 q 861 195 900 292 q 938 388 984 507 q 1031 626 1053 682 l 1045 686 l 576 0 l 508 0 l 508 666 l 504 666 q 470 562 444 483 q 417 404 402 364 q 387 323 353 235 z"},"g":{"x_min":0,"x_max":627,"ha":627,"o":"m 424 417 q 424 434 417 442 q 410 451 395 451 q 378 451 354 422 q 331 392 296 324 q 261 255 220 156 q 180 58 180 32 q 180 23 184 18 q 188 13 196 13 q 228 13 256 44 q 284 75 296 94 q 309 112 334 166 q 360 221 392 300 q 424 379 424 417 z m 660 474 q 627 387 588 290 q 550 192 491 55 q 432 -82 336 -157 q 240 -232 85 -232 q 24 -232 -18 -199 q -61 -166 -61 -121 q -61 -85 -36 -56 q -10 -28 34 -28 q 72 -28 99 -53 q 126 -78 126 -114 q 126 -146 104 -168 q 82 -190 46 -190 q 35 -190 35 -198 q 35 -205 48 -210 q 60 -216 84 -216 q 137 -216 178 -170 q 219 -125 254 -48 q 290 30 323 105 l 320 106 q 286 51 247 20 q 208 -10 152 -10 q 92 -10 52 29 q 12 68 12 131 q 12 250 116 367 q 221 484 355 484 q 389 484 414 469 q 438 454 438 418 l 437 401 l 468 474 z"},"j":{"x_min":0,"x_max":347,"ha":347,"o":"m 174 438 q 174 446 171 450 q 168 454 161 454 q 136 454 110 420 q 84 386 69 360 q 54 335 38 306 l 24 312 q 72 401 111 442 q 150 484 216 484 q 260 484 292 454 q 325 425 325 365 q 325 327 301 253 q 277 179 220 48 q 162 -82 68 -157 q -25 -232 -159 -232 q -223 -232 -260 -202 q -296 -171 -296 -127 q -296 -91 -272 -64 q -247 -38 -205 -38 q -170 -38 -146 -60 q -121 -81 -121 -115 q -121 -141 -137 -161 q -153 -181 -172 -184 q -190 -188 -200 -190 q -210 -193 -210 -200 q -210 -209 -203 -212 q -196 -216 -181 -216 q -135 -216 -96 -173 q -57 -130 -32 -79 q -7 -28 30 60 q 67 147 88 198 q 108 248 136 322 q 164 397 169 413 q 174 429 174 438 z m 231 646 q 231 687 259 713 q 287 739 326 739 q 366 739 394 713 q 422 687 422 646 q 422 606 394 580 q 365 553 326 553 q 286 553 258 580 q 231 606 231 646 z"},"i":{"x_min":0,"x_max":368,"ha":368,"o":"m 31 322 q 87 422 128 453 q 170 484 219 484 q 263 484 296 454 q 328 425 328 366 q 328 340 316 307 q 304 274 283 230 q 262 187 225 122 q 188 56 188 37 q 188 28 192 24 q 197 19 206 19 q 217 19 235 32 q 253 44 270 65 q 287 86 306 114 q 324 141 336 163 l 349 156 q 295 68 258 29 q 222 -10 148 -10 q 94 -10 66 22 q 38 53 38 101 q 38 133 48 158 q 57 184 88 244 q 118 304 141 351 q 164 398 171 415 q 178 432 178 440 q 178 447 174 450 q 171 454 164 454 q 157 454 140 442 q 124 429 98 398 q 71 366 44 316 z m 235 646 q 235 687 263 713 q 291 739 330 739 q 370 739 398 713 q 426 687 426 646 q 426 606 398 580 q 369 553 330 553 q 290 553 262 580 q 235 606 235 646 z"},"y":{"x_min":0,"x_max":635,"ha":635,"o":"m 97 -232 q 34 -232 -8 -198 q -50 -164 -50 -118 q -50 -82 -23 -54 q 4 -26 50 -26 q 88 -26 116 -50 q 143 -75 143 -111 q 143 -165 91 -180 q 65 -184 54 -186 q 43 -187 43 -198 q 43 -207 54 -212 q 64 -216 85 -216 q 137 -216 180 -170 q 223 -124 254 -64 q 284 -4 334 112 l 331 113 q 293 54 252 22 q 210 -9 152 -9 q 106 -9 72 20 q 38 48 38 107 q 38 134 51 169 q 64 204 80 239 q 97 274 137 348 q 177 422 177 436 q 177 444 173 448 q 169 452 161 452 q 136 452 108 418 q 81 384 60 352 q 39 319 27 299 l 14 305 q 70 397 109 440 q 148 484 220 484 q 272 484 299 452 q 326 419 326 373 q 326 338 318 316 q 310 294 290 252 q 270 210 232 136 q 193 63 193 40 q 193 30 198 25 q 202 20 211 20 q 222 20 237 29 q 252 38 270 56 q 287 73 307 102 q 327 130 348 174 q 370 219 411 313 q 452 407 460 430 q 469 452 478 474 l 673 474 q 659 440 632 374 q 606 308 578 241 q 550 174 492 46 q 435 -81 337 -156 q 239 -232 97 -232 z"},"@":{"x_min":0,"x_max":986,"ha":986,"o":"m 634 313 q 649 356 649 377 q 649 391 642 398 q 636 405 622 405 q 606 405 585 380 q 564 356 544 317 q 524 278 511 252 q 498 226 495 218 l 452 120 q 438 86 431 65 q 424 44 424 33 q 424 25 428 21 q 432 17 439 17 q 464 17 497 48 q 530 80 550 124 l 594 218 q 605 243 616 269 q 628 295 634 313 z m 951 328 q 951 438 881 520 q 811 601 628 601 q 451 601 320 465 q 189 329 189 149 q 189 -13 284 -101 q 380 -189 520 -189 q 602 -189 680 -164 q 757 -139 869 -58 l 877 -70 q 797 -136 704 -175 q 610 -214 510 -214 q 332 -214 209 -119 q 86 -24 86 152 q 86 360 244 502 q 403 644 621 644 q 779 644 876 559 q 973 474 973 337 q 973 258 945 196 q 917 133 865 80 q 813 27 759 8 q 705 -11 663 -11 q 615 -11 582 14 q 550 39 550 85 l 546 86 q 513 38 481 16 q 449 -6 397 -6 q 343 -6 308 28 q 274 61 274 118 q 274 225 372 332 q 469 439 589 439 q 619 439 641 425 q 663 411 663 381 q 662 375 662 372 l 666 372 l 691 430 l 868 430 q 850 391 823 333 q 796 275 758 192 q 721 110 713 92 q 705 73 705 56 q 705 41 712 33 q 719 25 733 25 q 761 25 792 42 q 823 58 865 104 q 907 149 929 202 q 951 255 951 328 z"},".":{"x_min":0,"x_max":262,"ha":262,"o":"m 6 89 q 6 129 35 157 q 64 185 105 185 q 146 185 176 158 q 205 130 205 89 q 205 48 176 20 q 147 -8 105 -8 q 64 -8 35 20 q 6 48 6 89 z"},"p":{"x_min":0,"x_max":631,"ha":631,"o":"m 619 317 q 619 207 532 98 q 444 -10 320 -10 q 275 -10 247 8 q 219 26 219 78 q 195 23 170 -38 q 144 -100 136 -121 q 128 -142 120 -163 q 113 -184 113 -192 q 113 -208 128 -212 q 144 -215 199 -215 l 199 -231 l -184 -231 l -184 -215 q -178 -215 -168 -214 q -158 -213 -136 -210 q -115 -207 -98 -192 q -81 -178 -49 -104 l 155 380 q 162 396 166 410 q 170 423 170 433 q 170 442 167 446 q 164 451 157 451 q 144 451 128 439 q 113 427 94 404 q 75 382 54 350 q 32 317 18 288 l 5 294 q 43 373 92 428 q 141 484 206 484 q 258 484 286 452 q 315 421 315 363 l 313 338 q 352 411 384 448 q 415 484 475 484 q 533 484 576 440 q 619 395 619 317 z m 456 424 q 456 442 450 450 q 445 459 434 459 q 411 459 383 425 q 355 391 329 336 q 303 280 268 190 q 234 99 234 63 q 234 43 242 32 q 249 22 264 22 q 288 22 306 52 q 325 83 355 141 q 385 199 420 293 q 456 387 456 424 z"},"X":{"x_min":0,"x_max":764,"ha":764,"o":"m 346 309 q 293 261 228 200 q 162 140 132 110 q 101 79 92 65 q 83 51 83 40 q 83 26 104 21 q 124 16 164 16 l 164 0 l -116 0 l -116 16 l -71 18 q -34 23 -9 34 q 16 44 66 86 q 117 127 224 224 q 330 321 341 331 l 271 619 q 258 670 244 688 q 230 705 201 710 l 161 713 l 161 729 l 604 729 l 604 713 l 561 711 q 533 708 521 700 q 509 692 509 662 q 509 644 526 572 q 542 500 549 468 q 598 513 638 550 q 678 588 716 626 q 755 665 755 689 q 755 713 682 713 l 682 729 l 945 729 l 945 713 l 910 711 q 872 706 846 695 q 819 684 778 649 q 736 614 665 549 q 594 484 554 447 q 581 328 598 254 q 616 181 632 118 q 649 54 662 39 q 674 24 704 19 l 746 16 l 746 0 l 301 0 l 301 16 q 312 16 324 16 q 337 17 366 20 q 396 24 396 71 q 396 90 376 176 q 356 262 346 309 z"},"*":{"x_min":0,"x_max":480,"ha":480,"o":"m 333 560 l 336 592 q 336 613 328 646 q 320 679 320 691 q 320 712 344 729 q 368 746 391 746 q 404 746 420 724 q 435 701 435 680 q 435 665 396 628 q 358 591 343 557 l 351 545 q 387 548 426 574 q 466 599 481 599 q 502 599 522 576 q 543 554 543 538 q 543 526 522 504 q 502 482 479 482 q 468 482 429 506 q 390 529 350 533 l 344 522 q 357 492 398 458 q 439 424 439 407 q 439 387 424 364 q 409 340 400 340 q 377 340 351 351 q 325 362 325 393 q 325 404 332 436 q 339 468 339 484 q 339 490 338 496 q 338 502 334 519 l 320 524 q 296 503 272 448 q 249 393 216 393 q 201 393 182 398 q 163 404 158 412 q 153 419 153 440 q 153 471 166 488 q 180 505 229 508 q 278 512 314 533 l 314 544 q 284 561 238 566 q 193 570 182 573 q 171 576 163 596 q 155 615 155 636 q 155 653 159 660 q 163 666 180 673 q 198 680 216 680 q 248 680 270 630 q 292 579 320 554 z"},"Y":{"x_min":0,"x_max":863,"ha":863,"o":"m 529 354 q 553 402 580 456 q 607 509 648 584 q 688 658 734 699 q 779 740 857 740 q 917 740 960 702 q 1002 665 1002 606 q 1002 546 964 507 q 926 468 866 468 q 813 468 774 500 q 735 532 735 583 q 735 602 738 612 q 741 622 747 634 q 753 647 764 662 q 775 676 775 687 q 775 694 766 694 q 754 694 736 677 q 718 660 694 623 q 670 586 630 506 q 589 426 564 376 q 540 326 528 300 l 458 125 q 433 59 433 43 q 433 27 456 22 q 478 16 532 16 l 532 0 l 57 0 l 57 16 l 112 20 q 149 24 166 44 q 184 63 210 124 q 237 185 257 234 q 277 284 295 330 q 287 356 270 408 q 254 459 238 506 q 222 552 200 610 q 179 669 169 686 q 159 703 138 707 q 116 711 102 712 q 88 712 76 713 l 76 729 l 543 729 l 543 713 q 484 708 460 704 q 437 699 437 662 q 437 645 446 614 q 455 583 459 568 l 525 354 z"},"c":{"x_min":0,"x_max":490,"ha":490,"o":"m 378 467 q 356 467 329 440 q 302 413 273 360 q 244 307 226 242 q 208 176 208 125 q 208 67 226 44 q 243 22 275 22 q 300 22 320 30 q 340 39 364 57 q 389 75 406 94 q 422 113 440 139 l 454 129 q 397 50 340 20 q 284 -10 220 -10 q 145 -10 80 36 q 14 81 14 168 q 14 287 120 386 q 225 484 372 484 q 459 484 494 452 q 528 420 528 381 q 528 338 502 312 q 477 285 437 285 q 401 285 377 306 q 353 327 353 358 q 353 384 376 414 q 400 444 400 455 q 400 461 394 464 q 389 467 378 467 z"},"!":{"x_min":0,"x_max":468,"ha":468,"o":"m 413 469 q 340 397 305 356 q 270 315 227 222 l 213 227 q 231 278 240 328 q 248 378 248 415 l 245 553 q 245 629 296 684 q 347 740 401 740 q 435 740 458 704 q 480 667 480 616 q 480 574 461 537 q 442 500 413 469 z m 70 89 q 70 129 99 157 q 128 185 169 185 q 210 185 240 158 q 269 130 269 89 q 269 48 240 20 q 211 -8 169 -8 q 128 -8 99 20 q 70 48 70 89 z"},"/":{"x_min":0,"x_max":300,"ha":300,"o":"m -62 -91 l 392 766 l 435 746 l -20 -110 z"},"[":{"x_min":0,"x_max":468,"ha":468,"o":"m -79 -125 l 267 734 q 322 719 373 712 q 424 705 486 705 q 534 705 571 714 q 608 723 608 750 q 608 767 598 780 q 594 785 599 789 q 604 793 609 793 q 634 768 634 734 q 634 674 597 647 q 560 620 505 620 q 440 620 384 650 q 328 680 283 706 l -41 -97 q 30 -59 80 -35 q 130 -11 189 -11 q 245 -11 282 -38 q 318 -64 318 -125 q 318 -159 293 -180 q 289 -184 284 -180 q 278 -177 282 -171 q 292 -158 292 -141 q 292 -115 254 -106 q 215 -96 170 -96 q 107 -96 48 -103 q -11 -110 -66 -125 z"},"6":{"x_min":0,"x_max":718,"ha":718,"o":"m 491 386 q 491 413 479 429 q 467 445 443 445 q 415 445 394 423 q 374 401 356 369 q 339 337 306 226 q 272 116 272 71 q 272 41 284 26 q 297 11 321 11 q 371 11 407 95 q 443 179 467 258 q 491 338 491 386 z m 681 724 q 725 710 760 676 q 796 643 796 601 q 796 552 764 522 q 733 493 685 493 q 638 493 602 522 q 565 551 565 596 q 565 618 568 628 q 571 639 578 652 q 586 665 602 678 q 618 690 618 699 q 618 705 614 714 q 609 722 584 722 q 554 722 526 700 q 498 678 470 634 q 442 589 418 533 q 393 477 372 420 q 396 449 432 462 q 469 476 512 476 q 597 476 658 428 q 718 381 718 278 q 718 157 618 72 q 519 -12 383 -12 q 247 -12 162 68 q 78 149 78 281 q 78 374 120 461 q 162 548 237 612 q 312 675 394 708 q 475 740 572 740 q 610 740 632 736 q 655 732 681 724 z"},"r":{"x_min":0,"x_max":553,"ha":553,"o":"m 590 392 q 590 348 563 317 q 536 286 495 286 q 459 286 432 306 q 406 327 406 364 q 406 382 414 397 q 423 412 433 429 q 433 438 423 438 q 408 438 382 400 q 357 361 329 301 l 184 0 l -11 0 l 161 380 q 166 390 170 404 q 174 417 174 428 q 174 437 171 441 q 168 445 161 445 q 149 445 133 432 q 117 419 102 400 q 88 382 66 347 q 44 312 31 287 l 18 292 q 81 413 127 448 q 173 484 230 484 q 278 484 302 454 q 325 424 325 372 q 325 352 320 332 q 315 312 311 302 l 314 301 q 360 396 396 440 q 431 484 496 484 q 543 484 566 455 q 590 426 590 392 z"},"2":{"x_min":0,"x_max":698,"ha":698,"o":"m 357 711 q 300 711 262 682 q 224 652 224 622 q 224 606 237 597 q 249 587 273 584 q 311 584 333 561 q 355 538 355 503 q 355 459 322 428 q 289 397 244 397 q 188 397 154 430 q 119 462 119 516 q 119 577 162 628 q 204 678 258 702 q 313 725 358 732 q 404 740 446 740 q 580 740 660 689 q 740 638 740 554 q 740 470 688 417 q 636 364 568 334 q 500 304 380 268 q 259 231 243 208 l 288 208 q 313 208 350 209 l 528 209 q 577 209 602 220 q 627 232 643 254 q 659 276 668 292 q 678 307 693 333 l 706 333 l 572 0 l -52 0 l -52 10 l 247 235 q 367 325 429 404 q 491 483 491 580 q 491 642 456 676 q 420 711 357 711 z"},"{":{"x_min":0,"x_max":401,"ha":401,"o":"m 574 711 q 499 711 457 688 q 415 665 397 616 q 379 566 368 524 q 357 481 335 424 q 313 368 259 336 q 205 305 138 299 l 138 293 q 176 289 204 264 q 231 239 231 193 q 231 158 180 56 q 128 -45 128 -95 q 128 -139 152 -159 q 176 -179 232 -179 l 232 -197 q 144 -197 82 -169 q 20 -141 20 -55 q 20 9 93 100 q 166 191 166 232 q 166 259 143 274 q 120 289 62 289 l 62 307 q 188 307 216 356 q 245 404 245 477 q 245 547 260 584 q 274 622 306 657 q 339 692 394 712 q 448 731 525 731 l 574 729 z"},"9":{"x_min":0,"x_max":718,"ha":718,"o":"m 746 453 q 746 359 706 274 q 665 188 592 123 q 520 58 438 23 q 356 -12 246 -12 q 147 -12 88 29 q 28 70 28 126 q 28 177 60 206 q 92 235 141 235 q 187 235 223 206 q 259 177 259 133 q 259 113 255 101 q 251 89 244 76 q 237 64 220 50 q 204 36 204 26 q 204 18 210 12 q 217 6 233 6 q 262 6 290 27 q 319 48 349 95 q 379 142 404 197 q 429 252 451 310 q 424 277 391 264 q 358 250 310 250 q 226 250 166 304 q 107 357 107 459 q 107 573 208 656 q 308 740 451 740 q 590 740 668 657 q 746 574 746 453 z m 555 658 q 555 688 544 703 q 533 718 507 718 q 475 718 454 694 q 434 670 408 611 q 382 552 356 466 q 331 381 331 342 q 331 312 343 297 q 355 282 378 282 q 406 282 428 305 q 451 328 469 364 q 487 399 521 505 q 555 611 555 658 z"}," ":{"x_min":0,"x_max":240,"ha":240,"o":""},"I":{"x_min":0,"x_max":528,"ha":528,"o":"m 688 713 l 636 710 q 588 706 573 682 q 558 657 532 594 q 506 530 472 448 q 439 366 408 287 q 376 208 347 135 q 318 62 318 44 q 318 30 336 23 q 354 16 417 16 l 417 0 l -58 0 l -58 16 l -3 20 q 34 24 52 44 q 69 63 99 132 q 129 200 170 300 q 210 400 233 459 q 256 518 284 588 q 311 659 311 678 q 311 701 294 707 q 276 713 211 713 l 211 729 l 688 729 z"},"H":{"x_min":0,"x_max":1005,"ha":1005,"o":"m 436 358 l 343 125 q 318 62 318 45 q 318 27 338 22 q 357 16 401 16 l 401 0 l -58 0 l -58 16 l -3 20 q 34 24 52 44 q 69 63 99 132 q 129 200 170 300 q 210 400 233 459 q 256 518 284 589 q 311 660 311 678 q 311 702 290 708 q 270 713 211 713 l 211 729 l 668 729 l 668 713 l 636 711 q 596 707 579 688 q 562 669 536 604 l 446 383 l 680 383 l 766 602 q 776 627 782 648 q 788 668 788 680 q 788 703 770 708 q 752 713 705 713 l 705 729 l 1165 729 l 1165 713 l 1113 710 q 1065 706 1050 682 q 1035 657 1009 594 q 983 530 950 448 q 916 366 884 287 q 853 208 824 135 q 795 62 795 44 q 795 27 814 22 q 833 16 894 16 l 894 0 l 438 0 l 438 16 l 474 19 q 511 23 528 42 q 546 62 574 125 q 601 188 624 244 q 647 300 670 358 z"},"4":{"x_min":0,"x_max":725,"ha":725,"o":"m 340 199 l 464 502 q 431 476 360 421 q 290 366 217 312 q 144 257 58 200 l 182 199 z m 561 156 q 524 63 524 44 q 524 30 546 23 q 569 16 633 16 l 633 0 l 148 0 l 148 16 q 156 16 171 16 q 186 17 220 21 q 253 25 270 48 q 288 71 324 156 l -5 156 l -5 181 q 98 249 232 350 q 367 450 476 536 q 584 623 715 733 l 794 733 l 579 199 l 697 199 l 680 156 z"},"~":{"x_min":0,"x_max":833,"ha":833,"o":"m 759 442 q 759 350 716 288 q 674 227 594 227 q 564 227 540 236 q 515 245 488 264 l 409 321 q 390 336 372 344 q 354 352 334 352 q 292 352 268 312 q 244 273 244 215 l 173 215 q 173 300 216 364 q 259 429 338 429 q 365 429 392 419 q 419 409 434 398 q 450 388 483 364 q 516 340 530 331 q 543 322 562 313 q 580 304 598 304 q 641 304 664 343 q 688 382 688 442 z"},"D":{"x_min":0,"x_max":939,"ha":939,"o":"m 964 425 q 964 319 918 234 q 872 149 792 96 q 712 43 611 20 q 510 -2 379 -2 l -58 0 l -58 16 l -3 20 q 34 24 52 44 q 69 63 99 132 q 129 200 170 300 q 210 400 233 459 q 256 518 284 588 q 311 659 311 678 q 311 700 289 706 q 267 713 201 713 l 201 729 l 590 731 q 787 731 876 639 q 964 547 964 425 z m 732 573 q 732 628 706 666 q 681 704 652 708 q 624 711 610 712 q 596 712 583 712 q 571 684 505 524 q 439 364 373 201 q 307 38 299 17 l 387 17 q 520 17 626 205 q 732 393 732 573 z"},"^":{"x_min":0,"x_max":833,"ha":833,"o":"m 470 613 l 465 613 l 280 235 l 206 266 l 431 729 l 503 729 l 728 266 l 654 235 z"},"0":{"x_min":0,"x_max":790,"ha":790,"o":"m 820 435 q 820 262 679 125 q 538 -12 348 -12 q 220 -12 148 73 q 76 158 76 293 q 76 474 222 607 q 367 740 548 740 q 673 740 746 658 q 820 575 820 435 z m 638 669 q 638 695 624 708 q 611 721 584 721 q 553 721 526 698 q 500 674 452 587 q 404 500 331 308 q 258 115 258 59 q 258 33 272 20 q 285 7 312 7 q 344 7 370 30 q 395 54 445 143 q 495 232 566 424 q 638 615 638 669 z"},"F":{"x_min":0,"x_max":817,"ha":817,"o":"m 345 125 q 337 103 330 78 q 322 54 322 47 q 322 28 342 22 q 363 16 431 16 l 431 0 l -53 0 l -53 16 l 2 20 q 39 24 56 44 q 74 64 106 140 q 138 217 164 282 q 189 348 221 433 q 253 518 273 573 q 293 628 299 648 q 305 669 305 679 q 305 698 285 706 q 265 713 204 713 l 204 729 l 991 729 l 843 358 l 824 358 l 826 422 q 826 526 797 610 q 768 695 720 701 q 671 707 646 708 q 621 709 596 709 l 573 709 l 444 382 l 498 385 q 565 396 622 438 q 678 479 710 542 l 730 542 l 579 167 l 559 167 q 563 184 567 212 q 571 239 571 258 q 571 309 552 336 q 533 362 489 362 l 436 363 z"},"`":{"x_min":0,"x_max":500,"ha":500,"o":"m 401 533 l 393 523 q 325 555 258 587 q 223 607 206 626 q 188 644 188 669 q 188 703 194 710 q 200 716 214 720 q 227 725 242 725 q 271 725 290 701 q 318 639 341 600 q 364 560 401 533 z"},"k":{"x_min":0,"x_max":622,"ha":622,"o":"m 262 253 l 160 0 l -34 0 q -7 66 34 166 q 75 266 128 398 q 182 531 204 588 q 227 645 232 661 q 238 677 238 688 q 238 711 205 711 l 161 713 l 161 729 l 456 729 l 267 266 q 320 272 347 305 q 373 351 394 384 q 416 418 459 451 q 502 484 550 484 q 594 484 620 462 q 645 439 645 401 q 645 361 618 334 q 591 307 553 307 q 519 307 496 328 q 473 349 473 382 q 473 406 487 427 q 502 443 518 460 q 514 462 511 462 q 485 462 462 425 q 445 394 429 363 q 410 332 393 318 q 376 304 334 277 q 369 275 404 262 q 439 248 456 230 q 474 211 478 194 q 483 176 483 157 q 483 133 476 106 q 470 79 463 51 q 463 41 467 36 q 471 30 479 30 q 501 30 527 61 q 553 92 566 110 q 579 129 595 156 l 607 149 q 560 64 514 27 q 469 -10 393 -10 q 345 -10 310 20 q 274 50 274 100 q 274 116 290 166 q 306 215 306 223 q 306 244 298 248 q 289 253 262 253 z"},"u":{"x_min":0,"x_max":672,"ha":672,"o":"m 154 -10 q 107 -10 74 19 q 40 48 40 107 q 40 134 52 167 q 64 200 84 244 q 105 288 141 356 q 177 423 177 436 q 177 445 174 449 q 170 453 162 453 q 152 453 136 441 q 119 429 102 411 q 86 393 64 361 q 43 329 27 299 l 14 305 q 63 390 104 437 q 146 484 220 484 q 272 484 299 452 q 326 419 326 373 q 326 333 310 295 q 295 264 280 232 q 266 200 230 133 q 194 66 194 40 q 194 30 198 25 q 203 20 211 20 q 235 20 262 54 q 289 87 307 116 q 325 144 339 173 l 484 474 l 679 474 l 509 94 q 504 81 497 63 q 490 45 490 37 q 490 30 493 26 q 496 23 502 23 q 531 23 556 51 q 580 79 602 112 q 624 144 649 188 l 661 181 q 606 88 563 39 q 520 -10 449 -10 q 401 -10 374 20 q 346 49 346 102 q 346 124 351 145 q 356 166 359 177 q 304 82 264 36 q 225 -10 154 -10 z"},"]":{"x_min":0,"x_max":468,"ha":468,"o":"m 604 734 l 258 -125 q 203 -110 152 -103 q 101 -96 39 -96 q -9 -96 -46 -105 q -83 -114 -83 -141 q -83 -158 -73 -171 q -69 -176 -74 -180 q -79 -184 -84 -184 q -109 -159 -109 -125 q -109 -65 -72 -38 q -35 -11 20 -11 q 85 -11 140 -41 q 196 -71 242 -97 l 566 706 q 495 668 445 644 q 395 620 336 620 q 280 620 244 646 q 207 673 207 734 q 207 768 232 789 q 236 793 242 790 q 247 786 243 780 q 233 767 233 750 q 233 724 272 714 q 310 705 355 705 q 418 705 477 712 q 536 719 591 734 z"},"U":{"x_min":0,"x_max":853,"ha":853,"o":"m 846 559 q 855 582 864 612 q 872 641 872 657 q 872 690 848 702 q 823 713 759 713 l 759 729 l 1063 729 l 1063 713 l 996 708 q 959 704 935 680 q 911 656 878 572 q 844 488 800 374 q 755 260 722 191 q 688 122 622 55 q 557 -12 393 -12 q 259 -12 190 48 q 120 108 120 194 q 120 212 126 230 q 131 249 159 320 l 273 602 q 295 660 295 678 q 295 700 275 706 q 255 713 195 713 l 195 729 l 672 729 l 672 713 l 620 710 q 572 706 557 682 q 542 657 516 594 q 490 530 464 466 q 438 402 406 321 q 373 240 366 220 q 358 199 352 172 q 345 146 345 128 q 345 80 374 52 q 404 23 452 23 q 514 23 566 48 q 619 73 646 110 q 674 148 693 182 q 712 216 722 240 q 733 265 786 404 q 840 543 846 559 z"},"o":{"x_min":0,"x_max":553,"ha":553,"o":"m 536 286 q 536 173 440 82 q 343 -10 204 -10 q 162 -10 128 6 q 94 22 56 63 q 17 104 17 188 q 17 299 112 392 q 208 484 349 484 q 393 484 425 468 q 457 453 486 422 q 515 391 526 356 q 536 322 536 286 z m 398 433 q 398 449 390 458 q 383 467 366 467 q 348 467 327 442 q 306 418 266 340 q 227 261 191 170 q 155 80 155 43 q 155 24 163 14 q 171 5 187 5 q 204 5 223 27 q 242 49 278 119 q 315 189 356 290 q 398 392 398 433 z"},"N":{"x_min":0,"x_max":1040,"ha":1040,"o":"m 1205 729 l 1205 713 l 1155 709 q 1120 705 1096 680 q 1073 655 1042 578 q 1010 502 948 346 q 885 190 856 118 q 827 46 809 0 l 672 0 l 499 648 q 469 558 440 474 q 411 389 400 358 q 388 326 355 240 q 322 154 302 114 q 281 75 242 32 q 204 -12 115 -12 q 54 -12 11 25 q -32 62 -32 123 q -32 182 7 221 q 46 260 105 260 q 157 260 196 228 q 235 196 235 145 q 235 124 232 109 q 228 94 222 82 q 215 69 204 58 q 194 48 194 41 q 194 33 204 33 q 212 33 224 42 q 236 51 254 78 q 273 104 290 143 q 308 182 334 250 q 361 317 394 411 q 428 505 448 567 q 469 629 473 645 q 477 661 477 671 q 477 696 452 704 q 427 713 358 713 l 358 729 l 721 729 l 865 205 q 875 230 900 292 q 926 353 948 409 q 971 465 996 530 q 1021 595 1028 617 q 1034 639 1034 654 q 1034 688 1006 700 q 979 713 911 713 l 911 729 z"},"+":{"x_min":0,"x_max":833,"ha":833,"o":"m 505 624 l 505 367 l 757 367 l 757 289 l 505 289 l 505 31 l 426 31 l 426 289 l 174 289 l 174 367 l 426 367 l 426 624 z"},"G":{"x_min":0,"x_max":882,"ha":882,"o":"m 75 299 q 75 473 220 606 q 366 740 576 740 q 663 740 725 720 q 781 697 838 675 q 864 675 886 693 q 909 711 925 740 l 944 740 l 808 401 l 789 401 q 790 418 791 450 q 792 481 792 495 l 790 565 q 790 643 756 676 q 721 710 665 710 q 620 710 573 679 q 526 648 488 596 q 449 545 419 490 q 389 436 364 372 q 339 307 324 242 q 310 177 310 119 q 310 69 328 38 q 345 8 386 8 q 428 8 458 34 q 488 59 499 84 q 510 110 520 138 q 531 167 539 194 q 547 221 552 240 q 557 260 557 271 q 557 292 534 298 q 510 304 462 304 l 462 320 l 917 320 l 917 304 l 887 301 q 838 301 823 274 q 808 246 788 194 q 767 142 750 90 q 734 39 720 -5 l 705 -5 q 699 17 682 39 q 666 61 610 61 q 568 61 494 24 q 420 -12 354 -12 q 230 -12 152 76 q 75 165 75 299 z"},"q":{"x_min":0,"x_max":617,"ha":617,"o":"m 427 434 q 427 451 420 459 q 412 467 397 467 q 378 467 356 438 q 334 410 295 334 q 256 258 217 164 q 178 71 178 39 q 178 27 183 20 q 188 14 198 14 q 228 14 257 45 q 286 76 316 136 q 346 195 386 296 q 427 398 427 434 z m 654 474 l 408 -121 q 385 -176 385 -193 q 385 -207 400 -211 q 414 -215 461 -215 l 461 -231 l 77 -231 l 77 -215 q 87 -215 96 -214 q 106 -214 132 -210 q 157 -207 175 -192 q 193 -176 222 -104 l 287 56 q 254 21 230 6 q 206 -10 164 -10 q 101 -10 58 32 q 16 75 16 147 q 16 268 117 376 q 218 484 374 484 q 428 484 466 465 q 505 446 528 396 l 644 478 z"},"d":{"x_min":0,"x_max":661,"ha":661,"o":"m 418 411 q 418 427 411 435 q 404 443 390 443 q 371 443 350 417 q 328 391 291 318 q 254 244 214 152 q 173 59 173 33 q 173 24 178 19 q 182 14 190 14 q 226 14 253 43 q 280 72 295 94 q 310 115 328 154 q 347 194 382 286 q 418 378 418 411 z m 501 94 q 493 74 490 64 q 486 53 486 44 q 486 37 490 34 q 493 30 500 30 q 531 30 562 70 q 592 110 604 130 q 617 151 637 185 l 650 179 q 617 118 592 82 q 566 46 524 18 q 483 -10 430 -10 q 384 -10 354 18 q 323 47 323 95 l 324 108 q 285 49 248 20 q 210 -10 154 -10 q 92 -10 54 32 q 16 74 16 147 q 16 262 112 373 q 207 484 328 484 q 377 484 404 466 q 432 448 432 409 l 431 394 q 437 410 470 492 q 502 574 515 608 q 528 641 534 658 q 540 676 540 685 q 540 704 524 708 q 508 713 453 713 l 453 729 l 758 729 z"},"1":{"x_min":0,"x_max":528,"ha":528,"o":"m 343 125 q 318 62 318 44 q 318 30 340 23 q 363 16 427 16 l 427 0 l -68 0 l -68 16 q -60 16 -45 16 q -30 17 2 20 q 34 24 52 44 q 69 63 98 130 q 127 197 168 296 q 208 394 232 456 q 256 518 284 588 q 311 658 311 676 q 311 697 288 705 q 264 713 201 713 l 201 729 l 586 729 z"},"5":{"x_min":0,"x_max":662,"ha":662,"o":"m 6 161 q 6 209 44 242 q 81 274 128 274 q 183 274 216 244 q 250 215 250 164 q 250 114 214 80 q 177 47 177 38 q 177 22 192 14 q 208 5 227 5 q 304 5 360 116 q 417 226 417 337 q 417 391 394 426 q 372 460 323 460 q 258 460 214 428 q 170 395 156 377 q 141 359 126 336 l 113 342 l 320 735 l 329 735 q 362 724 408 713 q 454 702 514 702 q 591 702 642 713 q 678 725 714 738 q 722 738 722 731 q 722 707 690 659 q 658 611 613 583 q 568 555 510 541 q 453 527 397 527 q 345 527 310 532 q 275 538 245 553 l 170 412 q 227 454 278 472 q 329 489 412 489 q 527 489 598 430 q 668 370 668 279 q 668 141 546 64 q 424 -12 262 -12 q 143 -12 74 35 q 6 82 6 161 z"}}}
